<?xml version="1.0" encoding="utf-8" standalone="no"?>
<!DOCTYPE svg PUBLIC "-//W3C//DTD SVG 1.1//EN"
  "http://www.w3.org/Graphics/SVG/1.1/DTD/svg11.dtd">
<!-- Created with matplotlib (https://matplotlib.org/) -->
<svg height="288pt" version="1.1" viewBox="0 0 432 288" width="432pt" xmlns="http://www.w3.org/2000/svg" xmlns:xlink="http://www.w3.org/1999/xlink">
 <defs>
  <style type="text/css">
*{stroke-linecap:butt;stroke-linejoin:round;}
  </style>
 </defs>
 <g id="figure_1">
  <g id="patch_1">
   <path d="M 0 288 
L 432 288 
L 432 0 
L 0 0 
z
" style="fill:#ffffff;"/>
  </g>
  <g id="axes_1">
   <g id="patch_2">
    <path d="M 54 252 
L 388.8 252 
L 388.8 34.56 
L 54 34.56 
z
" style="fill:#ffffff;"/>
   </g>
   <g id="matplotlib.axis_1">
    <g id="xtick_1">
     <g id="line2d_1">
      <defs>
       <path d="M 0 0 
L 0 3.5 
" id="m1fb3b14196" style="stroke:#000000;stroke-width:0.8;"/>
      </defs>
      <g>
       <use style="stroke:#000000;stroke-width:0.8;" x="120.648048" xlink:href="#m1fb3b14196" y="252"/>
      </g>
     </g>
     <g id="text_1">
      <!-- 0.2 -->
      <defs>
       <path d="M 31.78125 66.40625 
Q 24.171875 66.40625 20.328125 58.90625 
Q 16.5 51.421875 16.5 36.375 
Q 16.5 21.390625 20.328125 13.890625 
Q 24.171875 6.390625 31.78125 6.390625 
Q 39.453125 6.390625 43.28125 13.890625 
Q 47.125 21.390625 47.125 36.375 
Q 47.125 51.421875 43.28125 58.90625 
Q 39.453125 66.40625 31.78125 66.40625 
z
M 31.78125 74.21875 
Q 44.046875 74.21875 50.515625 64.515625 
Q 56.984375 54.828125 56.984375 36.375 
Q 56.984375 17.96875 50.515625 8.265625 
Q 44.046875 -1.421875 31.78125 -1.421875 
Q 19.53125 -1.421875 13.0625 8.265625 
Q 6.59375 17.96875 6.59375 36.375 
Q 6.59375 54.828125 13.0625 64.515625 
Q 19.53125 74.21875 31.78125 74.21875 
z
" id="DejaVuSans-48"/>
       <path d="M 10.6875 12.40625 
L 21 12.40625 
L 21 0 
L 10.6875 0 
z
" id="DejaVuSans-46"/>
       <path d="M 19.1875 8.296875 
L 53.609375 8.296875 
L 53.609375 0 
L 7.328125 0 
L 7.328125 8.296875 
Q 12.9375 14.109375 22.625 23.890625 
Q 32.328125 33.6875 34.8125 36.53125 
Q 39.546875 41.84375 41.421875 45.53125 
Q 43.3125 49.21875 43.3125 52.78125 
Q 43.3125 58.59375 39.234375 62.25 
Q 35.15625 65.921875 28.609375 65.921875 
Q 23.96875 65.921875 18.8125 64.3125 
Q 13.671875 62.703125 7.8125 59.421875 
L 7.8125 69.390625 
Q 13.765625 71.78125 18.9375 73 
Q 24.125 74.21875 28.421875 74.21875 
Q 39.75 74.21875 46.484375 68.546875 
Q 53.21875 62.890625 53.21875 53.421875 
Q 53.21875 48.921875 51.53125 44.890625 
Q 49.859375 40.875 45.40625 35.40625 
Q 44.1875 33.984375 37.640625 27.21875 
Q 31.109375 20.453125 19.1875 8.296875 
z
" id="DejaVuSans-50"/>
      </defs>
      <g transform="translate(112.696486 266.598437)scale(0.1 -0.1)">
       <use xlink:href="#DejaVuSans-48"/>
       <use x="63.623047" xlink:href="#DejaVuSans-46"/>
       <use x="95.410156" xlink:href="#DejaVuSans-50"/>
      </g>
     </g>
    </g>
    <g id="xtick_2">
     <g id="line2d_2">
      <g>
       <use style="stroke:#000000;stroke-width:0.8;" x="188.097054" xlink:href="#m1fb3b14196" y="252"/>
      </g>
     </g>
     <g id="text_2">
      <!-- 0.4 -->
      <defs>
       <path d="M 37.796875 64.3125 
L 12.890625 25.390625 
L 37.796875 25.390625 
z
M 35.203125 72.90625 
L 47.609375 72.90625 
L 47.609375 25.390625 
L 58.015625 25.390625 
L 58.015625 17.1875 
L 47.609375 17.1875 
L 47.609375 0 
L 37.796875 0 
L 37.796875 17.1875 
L 4.890625 17.1875 
L 4.890625 26.703125 
z
" id="DejaVuSans-52"/>
      </defs>
      <g transform="translate(180.145491 266.598437)scale(0.1 -0.1)">
       <use xlink:href="#DejaVuSans-48"/>
       <use x="63.623047" xlink:href="#DejaVuSans-46"/>
       <use x="95.410156" xlink:href="#DejaVuSans-52"/>
      </g>
     </g>
    </g>
    <g id="xtick_3">
     <g id="line2d_3">
      <g>
       <use style="stroke:#000000;stroke-width:0.8;" x="255.546059" xlink:href="#m1fb3b14196" y="252"/>
      </g>
     </g>
     <g id="text_3">
      <!-- 0.6 -->
      <defs>
       <path d="M 33.015625 40.375 
Q 26.375 40.375 22.484375 35.828125 
Q 18.609375 31.296875 18.609375 23.390625 
Q 18.609375 15.53125 22.484375 10.953125 
Q 26.375 6.390625 33.015625 6.390625 
Q 39.65625 6.390625 43.53125 10.953125 
Q 47.40625 15.53125 47.40625 23.390625 
Q 47.40625 31.296875 43.53125 35.828125 
Q 39.65625 40.375 33.015625 40.375 
z
M 52.59375 71.296875 
L 52.59375 62.3125 
Q 48.875 64.0625 45.09375 64.984375 
Q 41.3125 65.921875 37.59375 65.921875 
Q 27.828125 65.921875 22.671875 59.328125 
Q 17.53125 52.734375 16.796875 39.40625 
Q 19.671875 43.65625 24.015625 45.921875 
Q 28.375 48.1875 33.59375 48.1875 
Q 44.578125 48.1875 50.953125 41.515625 
Q 57.328125 34.859375 57.328125 23.390625 
Q 57.328125 12.15625 50.6875 5.359375 
Q 44.046875 -1.421875 33.015625 -1.421875 
Q 20.359375 -1.421875 13.671875 8.265625 
Q 6.984375 17.96875 6.984375 36.375 
Q 6.984375 53.65625 15.1875 63.9375 
Q 23.390625 74.21875 37.203125 74.21875 
Q 40.921875 74.21875 44.703125 73.484375 
Q 48.484375 72.75 52.59375 71.296875 
z
" id="DejaVuSans-54"/>
      </defs>
      <g transform="translate(247.594496 266.598437)scale(0.1 -0.1)">
       <use xlink:href="#DejaVuSans-48"/>
       <use x="63.623047" xlink:href="#DejaVuSans-46"/>
       <use x="95.410156" xlink:href="#DejaVuSans-54"/>
      </g>
     </g>
    </g>
    <g id="xtick_4">
     <g id="line2d_4">
      <g>
       <use style="stroke:#000000;stroke-width:0.8;" x="322.995064" xlink:href="#m1fb3b14196" y="252"/>
      </g>
     </g>
     <g id="text_4">
      <!-- 0.8 -->
      <defs>
       <path d="M 31.78125 34.625 
Q 24.75 34.625 20.71875 30.859375 
Q 16.703125 27.09375 16.703125 20.515625 
Q 16.703125 13.921875 20.71875 10.15625 
Q 24.75 6.390625 31.78125 6.390625 
Q 38.8125 6.390625 42.859375 10.171875 
Q 46.921875 13.96875 46.921875 20.515625 
Q 46.921875 27.09375 42.890625 30.859375 
Q 38.875 34.625 31.78125 34.625 
z
M 21.921875 38.8125 
Q 15.578125 40.375 12.03125 44.71875 
Q 8.5 49.078125 8.5 55.328125 
Q 8.5 64.0625 14.71875 69.140625 
Q 20.953125 74.21875 31.78125 74.21875 
Q 42.671875 74.21875 48.875 69.140625 
Q 55.078125 64.0625 55.078125 55.328125 
Q 55.078125 49.078125 51.53125 44.71875 
Q 48 40.375 41.703125 38.8125 
Q 48.828125 37.15625 52.796875 32.3125 
Q 56.78125 27.484375 56.78125 20.515625 
Q 56.78125 9.90625 50.3125 4.234375 
Q 43.84375 -1.421875 31.78125 -1.421875 
Q 19.734375 -1.421875 13.25 4.234375 
Q 6.78125 9.90625 6.78125 20.515625 
Q 6.78125 27.484375 10.78125 32.3125 
Q 14.796875 37.15625 21.921875 38.8125 
z
M 18.3125 54.390625 
Q 18.3125 48.734375 21.84375 45.5625 
Q 25.390625 42.390625 31.78125 42.390625 
Q 38.140625 42.390625 41.71875 45.5625 
Q 45.3125 48.734375 45.3125 54.390625 
Q 45.3125 60.0625 41.71875 63.234375 
Q 38.140625 66.40625 31.78125 66.40625 
Q 25.390625 66.40625 21.84375 63.234375 
Q 18.3125 60.0625 18.3125 54.390625 
z
" id="DejaVuSans-56"/>
      </defs>
      <g transform="translate(315.043502 266.598437)scale(0.1 -0.1)">
       <use xlink:href="#DejaVuSans-48"/>
       <use x="63.623047" xlink:href="#DejaVuSans-46"/>
       <use x="95.410156" xlink:href="#DejaVuSans-56"/>
      </g>
     </g>
    </g>
    <g id="text_5">
     <!-- local extreme index -->
     <defs>
      <path d="M 9.421875 75.984375 
L 18.40625 75.984375 
L 18.40625 0 
L 9.421875 0 
z
" id="DejaVuSans-108"/>
      <path d="M 30.609375 48.390625 
Q 23.390625 48.390625 19.1875 42.75 
Q 14.984375 37.109375 14.984375 27.296875 
Q 14.984375 17.484375 19.15625 11.84375 
Q 23.34375 6.203125 30.609375 6.203125 
Q 37.796875 6.203125 41.984375 11.859375 
Q 46.1875 17.53125 46.1875 27.296875 
Q 46.1875 37.015625 41.984375 42.703125 
Q 37.796875 48.390625 30.609375 48.390625 
z
M 30.609375 56 
Q 42.328125 56 49.015625 48.375 
Q 55.71875 40.765625 55.71875 27.296875 
Q 55.71875 13.875 49.015625 6.21875 
Q 42.328125 -1.421875 30.609375 -1.421875 
Q 18.84375 -1.421875 12.171875 6.21875 
Q 5.515625 13.875 5.515625 27.296875 
Q 5.515625 40.765625 12.171875 48.375 
Q 18.84375 56 30.609375 56 
z
" id="DejaVuSans-111"/>
      <path d="M 48.78125 52.59375 
L 48.78125 44.1875 
Q 44.96875 46.296875 41.140625 47.34375 
Q 37.3125 48.390625 33.40625 48.390625 
Q 24.65625 48.390625 19.8125 42.84375 
Q 14.984375 37.3125 14.984375 27.296875 
Q 14.984375 17.28125 19.8125 11.734375 
Q 24.65625 6.203125 33.40625 6.203125 
Q 37.3125 6.203125 41.140625 7.25 
Q 44.96875 8.296875 48.78125 10.40625 
L 48.78125 2.09375 
Q 45.015625 0.34375 40.984375 -0.53125 
Q 36.96875 -1.421875 32.421875 -1.421875 
Q 20.0625 -1.421875 12.78125 6.34375 
Q 5.515625 14.109375 5.515625 27.296875 
Q 5.515625 40.671875 12.859375 48.328125 
Q 20.21875 56 33.015625 56 
Q 37.15625 56 41.109375 55.140625 
Q 45.0625 54.296875 48.78125 52.59375 
z
" id="DejaVuSans-99"/>
      <path d="M 34.28125 27.484375 
Q 23.390625 27.484375 19.1875 25 
Q 14.984375 22.515625 14.984375 16.5 
Q 14.984375 11.71875 18.140625 8.90625 
Q 21.296875 6.109375 26.703125 6.109375 
Q 34.1875 6.109375 38.703125 11.40625 
Q 43.21875 16.703125 43.21875 25.484375 
L 43.21875 27.484375 
z
M 52.203125 31.203125 
L 52.203125 0 
L 43.21875 0 
L 43.21875 8.296875 
Q 40.140625 3.328125 35.546875 0.953125 
Q 30.953125 -1.421875 24.3125 -1.421875 
Q 15.921875 -1.421875 10.953125 3.296875 
Q 6 8.015625 6 15.921875 
Q 6 25.140625 12.171875 29.828125 
Q 18.359375 34.515625 30.609375 34.515625 
L 43.21875 34.515625 
L 43.21875 35.40625 
Q 43.21875 41.609375 39.140625 45 
Q 35.0625 48.390625 27.6875 48.390625 
Q 23 48.390625 18.546875 47.265625 
Q 14.109375 46.140625 10.015625 43.890625 
L 10.015625 52.203125 
Q 14.9375 54.109375 19.578125 55.046875 
Q 24.21875 56 28.609375 56 
Q 40.484375 56 46.34375 49.84375 
Q 52.203125 43.703125 52.203125 31.203125 
z
" id="DejaVuSans-97"/>
      <path id="DejaVuSans-32"/>
      <path d="M 56.203125 29.59375 
L 56.203125 25.203125 
L 14.890625 25.203125 
Q 15.484375 15.921875 20.484375 11.0625 
Q 25.484375 6.203125 34.421875 6.203125 
Q 39.59375 6.203125 44.453125 7.46875 
Q 49.3125 8.734375 54.109375 11.28125 
L 54.109375 2.78125 
Q 49.265625 0.734375 44.1875 -0.34375 
Q 39.109375 -1.421875 33.890625 -1.421875 
Q 20.796875 -1.421875 13.15625 6.1875 
Q 5.515625 13.8125 5.515625 26.8125 
Q 5.515625 40.234375 12.765625 48.109375 
Q 20.015625 56 32.328125 56 
Q 43.359375 56 49.78125 48.890625 
Q 56.203125 41.796875 56.203125 29.59375 
z
M 47.21875 32.234375 
Q 47.125 39.59375 43.09375 43.984375 
Q 39.0625 48.390625 32.421875 48.390625 
Q 24.90625 48.390625 20.390625 44.140625 
Q 15.875 39.890625 15.1875 32.171875 
z
" id="DejaVuSans-101"/>
      <path d="M 54.890625 54.6875 
L 35.109375 28.078125 
L 55.90625 0 
L 45.3125 0 
L 29.390625 21.484375 
L 13.484375 0 
L 2.875 0 
L 24.125 28.609375 
L 4.6875 54.6875 
L 15.28125 54.6875 
L 29.78125 35.203125 
L 44.28125 54.6875 
z
" id="DejaVuSans-120"/>
      <path d="M 18.3125 70.21875 
L 18.3125 54.6875 
L 36.8125 54.6875 
L 36.8125 47.703125 
L 18.3125 47.703125 
L 18.3125 18.015625 
Q 18.3125 11.328125 20.140625 9.421875 
Q 21.96875 7.515625 27.59375 7.515625 
L 36.8125 7.515625 
L 36.8125 0 
L 27.59375 0 
Q 17.1875 0 13.234375 3.875 
Q 9.28125 7.765625 9.28125 18.015625 
L 9.28125 47.703125 
L 2.6875 47.703125 
L 2.6875 54.6875 
L 9.28125 54.6875 
L 9.28125 70.21875 
z
" id="DejaVuSans-116"/>
      <path d="M 41.109375 46.296875 
Q 39.59375 47.171875 37.8125 47.578125 
Q 36.03125 48 33.890625 48 
Q 26.265625 48 22.1875 43.046875 
Q 18.109375 38.09375 18.109375 28.8125 
L 18.109375 0 
L 9.078125 0 
L 9.078125 54.6875 
L 18.109375 54.6875 
L 18.109375 46.1875 
Q 20.953125 51.171875 25.484375 53.578125 
Q 30.03125 56 36.53125 56 
Q 37.453125 56 38.578125 55.875 
Q 39.703125 55.765625 41.0625 55.515625 
z
" id="DejaVuSans-114"/>
      <path d="M 52 44.1875 
Q 55.375 50.25 60.0625 53.125 
Q 64.75 56 71.09375 56 
Q 79.640625 56 84.28125 50.015625 
Q 88.921875 44.046875 88.921875 33.015625 
L 88.921875 0 
L 79.890625 0 
L 79.890625 32.71875 
Q 79.890625 40.578125 77.09375 44.375 
Q 74.3125 48.1875 68.609375 48.1875 
Q 61.625 48.1875 57.5625 43.546875 
Q 53.515625 38.921875 53.515625 30.90625 
L 53.515625 0 
L 44.484375 0 
L 44.484375 32.71875 
Q 44.484375 40.625 41.703125 44.40625 
Q 38.921875 48.1875 33.109375 48.1875 
Q 26.21875 48.1875 22.15625 43.53125 
Q 18.109375 38.875 18.109375 30.90625 
L 18.109375 0 
L 9.078125 0 
L 9.078125 54.6875 
L 18.109375 54.6875 
L 18.109375 46.1875 
Q 21.1875 51.21875 25.484375 53.609375 
Q 29.78125 56 35.6875 56 
Q 41.65625 56 45.828125 52.96875 
Q 50 49.953125 52 44.1875 
z
" id="DejaVuSans-109"/>
      <path d="M 9.421875 54.6875 
L 18.40625 54.6875 
L 18.40625 0 
L 9.421875 0 
z
M 9.421875 75.984375 
L 18.40625 75.984375 
L 18.40625 64.59375 
L 9.421875 64.59375 
z
" id="DejaVuSans-105"/>
      <path d="M 54.890625 33.015625 
L 54.890625 0 
L 45.90625 0 
L 45.90625 32.71875 
Q 45.90625 40.484375 42.875 44.328125 
Q 39.84375 48.1875 33.796875 48.1875 
Q 26.515625 48.1875 22.3125 43.546875 
Q 18.109375 38.921875 18.109375 30.90625 
L 18.109375 0 
L 9.078125 0 
L 9.078125 54.6875 
L 18.109375 54.6875 
L 18.109375 46.1875 
Q 21.34375 51.125 25.703125 53.5625 
Q 30.078125 56 35.796875 56 
Q 45.21875 56 50.046875 50.171875 
Q 54.890625 44.34375 54.890625 33.015625 
z
" id="DejaVuSans-110"/>
      <path d="M 45.40625 46.390625 
L 45.40625 75.984375 
L 54.390625 75.984375 
L 54.390625 0 
L 45.40625 0 
L 45.40625 8.203125 
Q 42.578125 3.328125 38.25 0.953125 
Q 33.9375 -1.421875 27.875 -1.421875 
Q 17.96875 -1.421875 11.734375 6.484375 
Q 5.515625 14.40625 5.515625 27.296875 
Q 5.515625 40.1875 11.734375 48.09375 
Q 17.96875 56 27.875 56 
Q 33.9375 56 38.25 53.625 
Q 42.578125 51.265625 45.40625 46.390625 
z
M 14.796875 27.296875 
Q 14.796875 17.390625 18.875 11.75 
Q 22.953125 6.109375 30.078125 6.109375 
Q 37.203125 6.109375 41.296875 11.75 
Q 45.40625 17.390625 45.40625 27.296875 
Q 45.40625 37.203125 41.296875 42.84375 
Q 37.203125 48.484375 30.078125 48.484375 
Q 22.953125 48.484375 18.875 42.84375 
Q 14.796875 37.203125 14.796875 27.296875 
z
" id="DejaVuSans-100"/>
     </defs>
     <g transform="translate(171.73125 280.276563)scale(0.1 -0.1)">
      <use xlink:href="#DejaVuSans-108"/>
      <use x="27.783203" xlink:href="#DejaVuSans-111"/>
      <use x="88.964844" xlink:href="#DejaVuSans-99"/>
      <use x="143.945312" xlink:href="#DejaVuSans-97"/>
      <use x="205.224609" xlink:href="#DejaVuSans-108"/>
      <use x="233.007812" xlink:href="#DejaVuSans-32"/>
      <use x="264.794922" xlink:href="#DejaVuSans-101"/>
      <use x="326.302734" xlink:href="#DejaVuSans-120"/>
      <use x="385.482422" xlink:href="#DejaVuSans-116"/>
      <use x="424.691406" xlink:href="#DejaVuSans-114"/>
      <use x="465.773438" xlink:href="#DejaVuSans-101"/>
      <use x="527.296875" xlink:href="#DejaVuSans-109"/>
      <use x="624.708984" xlink:href="#DejaVuSans-101"/>
      <use x="686.232422" xlink:href="#DejaVuSans-32"/>
      <use x="718.019531" xlink:href="#DejaVuSans-105"/>
      <use x="745.802734" xlink:href="#DejaVuSans-110"/>
      <use x="809.181641" xlink:href="#DejaVuSans-100"/>
      <use x="872.658203" xlink:href="#DejaVuSans-101"/>
      <use x="934.166016" xlink:href="#DejaVuSans-120"/>
     </g>
     <!-- [zero corresponds to minimum, one to maximum] -->
     <defs>
      <path d="M 8.59375 75.984375 
L 29.296875 75.984375 
L 29.296875 69 
L 17.578125 69 
L 17.578125 -6.203125 
L 29.296875 -6.203125 
L 29.296875 -13.1875 
L 8.59375 -13.1875 
z
" id="DejaVuSans-91"/>
      <path d="M 5.515625 54.6875 
L 48.1875 54.6875 
L 48.1875 46.484375 
L 14.40625 7.171875 
L 48.1875 7.171875 
L 48.1875 0 
L 4.296875 0 
L 4.296875 8.203125 
L 38.09375 47.515625 
L 5.515625 47.515625 
z
" id="DejaVuSans-122"/>
      <path d="M 44.28125 53.078125 
L 44.28125 44.578125 
Q 40.484375 46.53125 36.375 47.5 
Q 32.28125 48.484375 27.875 48.484375 
Q 21.1875 48.484375 17.84375 46.4375 
Q 14.5 44.390625 14.5 40.28125 
Q 14.5 37.15625 16.890625 35.375 
Q 19.28125 33.59375 26.515625 31.984375 
L 29.59375 31.296875 
Q 39.15625 29.25 43.1875 25.515625 
Q 47.21875 21.78125 47.21875 15.09375 
Q 47.21875 7.46875 41.1875 3.015625 
Q 35.15625 -1.421875 24.609375 -1.421875 
Q 20.21875 -1.421875 15.453125 -0.5625 
Q 10.6875 0.296875 5.421875 2 
L 5.421875 11.28125 
Q 10.40625 8.6875 15.234375 7.390625 
Q 20.0625 6.109375 24.8125 6.109375 
Q 31.15625 6.109375 34.5625 8.28125 
Q 37.984375 10.453125 37.984375 14.40625 
Q 37.984375 18.0625 35.515625 20.015625 
Q 33.0625 21.96875 24.703125 23.78125 
L 21.578125 24.515625 
Q 13.234375 26.265625 9.515625 29.90625 
Q 5.8125 33.546875 5.8125 39.890625 
Q 5.8125 47.609375 11.28125 51.796875 
Q 16.75 56 26.8125 56 
Q 31.78125 56 36.171875 55.265625 
Q 40.578125 54.546875 44.28125 53.078125 
z
" id="DejaVuSans-115"/>
      <path d="M 18.109375 8.203125 
L 18.109375 -20.796875 
L 9.078125 -20.796875 
L 9.078125 54.6875 
L 18.109375 54.6875 
L 18.109375 46.390625 
Q 20.953125 51.265625 25.265625 53.625 
Q 29.59375 56 35.59375 56 
Q 45.5625 56 51.78125 48.09375 
Q 58.015625 40.1875 58.015625 27.296875 
Q 58.015625 14.40625 51.78125 6.484375 
Q 45.5625 -1.421875 35.59375 -1.421875 
Q 29.59375 -1.421875 25.265625 0.953125 
Q 20.953125 3.328125 18.109375 8.203125 
z
M 48.6875 27.296875 
Q 48.6875 37.203125 44.609375 42.84375 
Q 40.53125 48.484375 33.40625 48.484375 
Q 26.265625 48.484375 22.1875 42.84375 
Q 18.109375 37.203125 18.109375 27.296875 
Q 18.109375 17.390625 22.1875 11.75 
Q 26.265625 6.109375 33.40625 6.109375 
Q 40.53125 6.109375 44.609375 11.75 
Q 48.6875 17.390625 48.6875 27.296875 
z
" id="DejaVuSans-112"/>
      <path d="M 8.5 21.578125 
L 8.5 54.6875 
L 17.484375 54.6875 
L 17.484375 21.921875 
Q 17.484375 14.15625 20.5 10.265625 
Q 23.53125 6.390625 29.59375 6.390625 
Q 36.859375 6.390625 41.078125 11.03125 
Q 45.3125 15.671875 45.3125 23.6875 
L 45.3125 54.6875 
L 54.296875 54.6875 
L 54.296875 0 
L 45.3125 0 
L 45.3125 8.40625 
Q 42.046875 3.421875 37.71875 1 
Q 33.40625 -1.421875 27.6875 -1.421875 
Q 18.265625 -1.421875 13.375 4.4375 
Q 8.5 10.296875 8.5 21.578125 
z
M 31.109375 56 
z
" id="DejaVuSans-117"/>
      <path d="M 11.71875 12.40625 
L 22.015625 12.40625 
L 22.015625 4 
L 14.015625 -11.625 
L 7.71875 -11.625 
L 11.71875 4 
z
" id="DejaVuSans-44"/>
      <path d="M 30.421875 75.984375 
L 30.421875 -13.1875 
L 9.71875 -13.1875 
L 9.71875 -6.203125 
L 21.390625 -6.203125 
L 21.390625 69 
L 9.71875 69 
L 9.71875 75.984375 
z
" id="DejaVuSans-93"/>
     </defs>
     <g transform="translate(96.51875 291.474375)scale(0.1 -0.1)">
      <use xlink:href="#DejaVuSans-91"/>
      <use x="39.013672" xlink:href="#DejaVuSans-122"/>
      <use x="91.503906" xlink:href="#DejaVuSans-101"/>
      <use x="153.027344" xlink:href="#DejaVuSans-114"/>
      <use x="194.109375" xlink:href="#DejaVuSans-111"/>
      <use x="255.291016" xlink:href="#DejaVuSans-32"/>
      <use x="287.078125" xlink:href="#DejaVuSans-99"/>
      <use x="342.058594" xlink:href="#DejaVuSans-111"/>
      <use x="403.240234" xlink:href="#DejaVuSans-114"/>
      <use x="444.337891" xlink:href="#DejaVuSans-114"/>
      <use x="485.419922" xlink:href="#DejaVuSans-101"/>
      <use x="546.943359" xlink:href="#DejaVuSans-115"/>
      <use x="599.042969" xlink:href="#DejaVuSans-112"/>
      <use x="662.519531" xlink:href="#DejaVuSans-111"/>
      <use x="723.701172" xlink:href="#DejaVuSans-110"/>
      <use x="787.080078" xlink:href="#DejaVuSans-100"/>
      <use x="850.556641" xlink:href="#DejaVuSans-115"/>
      <use x="902.65625" xlink:href="#DejaVuSans-32"/>
      <use x="934.443359" xlink:href="#DejaVuSans-116"/>
      <use x="973.652344" xlink:href="#DejaVuSans-111"/>
      <use x="1034.833984" xlink:href="#DejaVuSans-32"/>
      <use x="1066.621094" xlink:href="#DejaVuSans-109"/>
      <use x="1164.033203" xlink:href="#DejaVuSans-105"/>
      <use x="1191.816406" xlink:href="#DejaVuSans-110"/>
      <use x="1255.195312" xlink:href="#DejaVuSans-105"/>
      <use x="1282.978516" xlink:href="#DejaVuSans-109"/>
      <use x="1380.390625" xlink:href="#DejaVuSans-117"/>
      <use x="1443.769531" xlink:href="#DejaVuSans-109"/>
      <use x="1541.181641" xlink:href="#DejaVuSans-44"/>
      <use x="1572.96875" xlink:href="#DejaVuSans-32"/>
      <use x="1604.755859" xlink:href="#DejaVuSans-111"/>
      <use x="1665.9375" xlink:href="#DejaVuSans-110"/>
      <use x="1729.316406" xlink:href="#DejaVuSans-101"/>
      <use x="1790.839844" xlink:href="#DejaVuSans-32"/>
      <use x="1822.626953" xlink:href="#DejaVuSans-116"/>
      <use x="1861.835938" xlink:href="#DejaVuSans-111"/>
      <use x="1923.017578" xlink:href="#DejaVuSans-32"/>
      <use x="1954.804688" xlink:href="#DejaVuSans-109"/>
      <use x="2052.216797" xlink:href="#DejaVuSans-97"/>
      <use x="2113.496094" xlink:href="#DejaVuSans-120"/>
      <use x="2172.675781" xlink:href="#DejaVuSans-105"/>
      <use x="2200.458984" xlink:href="#DejaVuSans-109"/>
      <use x="2297.871094" xlink:href="#DejaVuSans-117"/>
      <use x="2361.25" xlink:href="#DejaVuSans-109"/>
      <use x="2458.662109" xlink:href="#DejaVuSans-93"/>
     </g>
    </g>
   </g>
   <g id="matplotlib.axis_2">
    <g id="ytick_1">
     <g id="line2d_5">
      <defs>
       <path d="M 0 0 
L -3.5 0 
" id="maf4bde6560" style="stroke:#000000;stroke-width:0.8;"/>
      </defs>
      <g>
       <use style="stroke:#000000;stroke-width:0.8;" x="54" xlink:href="#maf4bde6560" y="230.667126"/>
      </g>
     </g>
     <g id="text_6">
      <!-- 0.000 -->
      <g transform="translate(18.371875 234.466345)scale(0.1 -0.1)">
       <use xlink:href="#DejaVuSans-48"/>
       <use x="63.623047" xlink:href="#DejaVuSans-46"/>
       <use x="95.410156" xlink:href="#DejaVuSans-48"/>
       <use x="159.033203" xlink:href="#DejaVuSans-48"/>
       <use x="222.65625" xlink:href="#DejaVuSans-48"/>
      </g>
     </g>
    </g>
    <g id="ytick_2">
     <g id="line2d_6">
      <g>
       <use style="stroke:#000000;stroke-width:0.8;" x="54" xlink:href="#maf4bde6560" y="203.800386"/>
      </g>
     </g>
     <g id="text_7">
      <!-- 0.001 -->
      <defs>
       <path d="M 12.40625 8.296875 
L 28.515625 8.296875 
L 28.515625 63.921875 
L 10.984375 60.40625 
L 10.984375 69.390625 
L 28.421875 72.90625 
L 38.28125 72.90625 
L 38.28125 8.296875 
L 54.390625 8.296875 
L 54.390625 0 
L 12.40625 0 
z
" id="DejaVuSans-49"/>
      </defs>
      <g transform="translate(18.371875 207.599604)scale(0.1 -0.1)">
       <use xlink:href="#DejaVuSans-48"/>
       <use x="63.623047" xlink:href="#DejaVuSans-46"/>
       <use x="95.410156" xlink:href="#DejaVuSans-48"/>
       <use x="159.033203" xlink:href="#DejaVuSans-48"/>
       <use x="222.65625" xlink:href="#DejaVuSans-49"/>
      </g>
     </g>
    </g>
    <g id="ytick_3">
     <g id="line2d_7">
      <g>
       <use style="stroke:#000000;stroke-width:0.8;" x="54" xlink:href="#maf4bde6560" y="176.933645"/>
      </g>
     </g>
     <g id="text_8">
      <!-- 0.002 -->
      <g transform="translate(18.371875 180.732864)scale(0.1 -0.1)">
       <use xlink:href="#DejaVuSans-48"/>
       <use x="63.623047" xlink:href="#DejaVuSans-46"/>
       <use x="95.410156" xlink:href="#DejaVuSans-48"/>
       <use x="159.033203" xlink:href="#DejaVuSans-48"/>
       <use x="222.65625" xlink:href="#DejaVuSans-50"/>
      </g>
     </g>
    </g>
    <g id="ytick_4">
     <g id="line2d_8">
      <g>
       <use style="stroke:#000000;stroke-width:0.8;" x="54" xlink:href="#maf4bde6560" y="150.066904"/>
      </g>
     </g>
     <g id="text_9">
      <!-- 0.003 -->
      <defs>
       <path d="M 40.578125 39.3125 
Q 47.65625 37.796875 51.625 33 
Q 55.609375 28.21875 55.609375 21.1875 
Q 55.609375 10.40625 48.1875 4.484375 
Q 40.765625 -1.421875 27.09375 -1.421875 
Q 22.515625 -1.421875 17.65625 -0.515625 
Q 12.796875 0.390625 7.625 2.203125 
L 7.625 11.71875 
Q 11.71875 9.328125 16.59375 8.109375 
Q 21.484375 6.890625 26.8125 6.890625 
Q 36.078125 6.890625 40.9375 10.546875 
Q 45.796875 14.203125 45.796875 21.1875 
Q 45.796875 27.640625 41.28125 31.265625 
Q 36.765625 34.90625 28.71875 34.90625 
L 20.21875 34.90625 
L 20.21875 43.015625 
L 29.109375 43.015625 
Q 36.375 43.015625 40.234375 45.921875 
Q 44.09375 48.828125 44.09375 54.296875 
Q 44.09375 59.90625 40.109375 62.90625 
Q 36.140625 65.921875 28.71875 65.921875 
Q 24.65625 65.921875 20.015625 65.03125 
Q 15.375 64.15625 9.8125 62.3125 
L 9.8125 71.09375 
Q 15.4375 72.65625 20.34375 73.4375 
Q 25.25 74.21875 29.59375 74.21875 
Q 40.828125 74.21875 47.359375 69.109375 
Q 53.90625 64.015625 53.90625 55.328125 
Q 53.90625 49.265625 50.4375 45.09375 
Q 46.96875 40.921875 40.578125 39.3125 
z
" id="DejaVuSans-51"/>
      </defs>
      <g transform="translate(18.371875 153.866123)scale(0.1 -0.1)">
       <use xlink:href="#DejaVuSans-48"/>
       <use x="63.623047" xlink:href="#DejaVuSans-46"/>
       <use x="95.410156" xlink:href="#DejaVuSans-48"/>
       <use x="159.033203" xlink:href="#DejaVuSans-48"/>
       <use x="222.65625" xlink:href="#DejaVuSans-51"/>
      </g>
     </g>
    </g>
    <g id="ytick_5">
     <g id="line2d_9">
      <g>
       <use style="stroke:#000000;stroke-width:0.8;" x="54" xlink:href="#maf4bde6560" y="123.200163"/>
      </g>
     </g>
     <g id="text_10">
      <!-- 0.004 -->
      <g transform="translate(18.371875 126.999382)scale(0.1 -0.1)">
       <use xlink:href="#DejaVuSans-48"/>
       <use x="63.623047" xlink:href="#DejaVuSans-46"/>
       <use x="95.410156" xlink:href="#DejaVuSans-48"/>
       <use x="159.033203" xlink:href="#DejaVuSans-48"/>
       <use x="222.65625" xlink:href="#DejaVuSans-52"/>
      </g>
     </g>
    </g>
    <g id="ytick_6">
     <g id="line2d_10">
      <g>
       <use style="stroke:#000000;stroke-width:0.8;" x="54" xlink:href="#maf4bde6560" y="96.333423"/>
      </g>
     </g>
     <g id="text_11">
      <!-- 0.005 -->
      <defs>
       <path d="M 10.796875 72.90625 
L 49.515625 72.90625 
L 49.515625 64.59375 
L 19.828125 64.59375 
L 19.828125 46.734375 
Q 21.96875 47.46875 24.109375 47.828125 
Q 26.265625 48.1875 28.421875 48.1875 
Q 40.625 48.1875 47.75 41.5 
Q 54.890625 34.8125 54.890625 23.390625 
Q 54.890625 11.625 47.5625 5.09375 
Q 40.234375 -1.421875 26.90625 -1.421875 
Q 22.3125 -1.421875 17.546875 -0.640625 
Q 12.796875 0.140625 7.71875 1.703125 
L 7.71875 11.625 
Q 12.109375 9.234375 16.796875 8.0625 
Q 21.484375 6.890625 26.703125 6.890625 
Q 35.15625 6.890625 40.078125 11.328125 
Q 45.015625 15.765625 45.015625 23.390625 
Q 45.015625 31 40.078125 35.4375 
Q 35.15625 39.890625 26.703125 39.890625 
Q 22.75 39.890625 18.8125 39.015625 
Q 14.890625 38.140625 10.796875 36.28125 
z
" id="DejaVuSans-53"/>
      </defs>
      <g transform="translate(18.371875 100.132641)scale(0.1 -0.1)">
       <use xlink:href="#DejaVuSans-48"/>
       <use x="63.623047" xlink:href="#DejaVuSans-46"/>
       <use x="95.410156" xlink:href="#DejaVuSans-48"/>
       <use x="159.033203" xlink:href="#DejaVuSans-48"/>
       <use x="222.65625" xlink:href="#DejaVuSans-53"/>
      </g>
     </g>
    </g>
    <g id="ytick_7">
     <g id="line2d_11">
      <g>
       <use style="stroke:#000000;stroke-width:0.8;" x="54" xlink:href="#maf4bde6560" y="69.466682"/>
      </g>
     </g>
     <g id="text_12">
      <!-- 0.006 -->
      <g transform="translate(18.371875 73.265901)scale(0.1 -0.1)">
       <use xlink:href="#DejaVuSans-48"/>
       <use x="63.623047" xlink:href="#DejaVuSans-46"/>
       <use x="95.410156" xlink:href="#DejaVuSans-48"/>
       <use x="159.033203" xlink:href="#DejaVuSans-48"/>
       <use x="222.65625" xlink:href="#DejaVuSans-54"/>
      </g>
     </g>
    </g>
    <g id="ytick_8">
     <g id="line2d_12">
      <g>
       <use style="stroke:#000000;stroke-width:0.8;" x="54" xlink:href="#maf4bde6560" y="42.599941"/>
      </g>
     </g>
     <g id="text_13">
      <!-- 0.007 -->
      <defs>
       <path d="M 8.203125 72.90625 
L 55.078125 72.90625 
L 55.078125 68.703125 
L 28.609375 0 
L 18.3125 0 
L 43.21875 64.59375 
L 8.203125 64.59375 
z
" id="DejaVuSans-55"/>
      </defs>
      <g transform="translate(18.371875 46.39916)scale(0.1 -0.1)">
       <use xlink:href="#DejaVuSans-48"/>
       <use x="63.623047" xlink:href="#DejaVuSans-46"/>
       <use x="95.410156" xlink:href="#DejaVuSans-48"/>
       <use x="159.033203" xlink:href="#DejaVuSans-48"/>
       <use x="222.65625" xlink:href="#DejaVuSans-55"/>
      </g>
     </g>
    </g>
    <g id="text_14">
     <!-- probability of country for local extreme -->
     <defs>
      <path d="M 48.6875 27.296875 
Q 48.6875 37.203125 44.609375 42.84375 
Q 40.53125 48.484375 33.40625 48.484375 
Q 26.265625 48.484375 22.1875 42.84375 
Q 18.109375 37.203125 18.109375 27.296875 
Q 18.109375 17.390625 22.1875 11.75 
Q 26.265625 6.109375 33.40625 6.109375 
Q 40.53125 6.109375 44.609375 11.75 
Q 48.6875 17.390625 48.6875 27.296875 
z
M 18.109375 46.390625 
Q 20.953125 51.265625 25.265625 53.625 
Q 29.59375 56 35.59375 56 
Q 45.5625 56 51.78125 48.09375 
Q 58.015625 40.1875 58.015625 27.296875 
Q 58.015625 14.40625 51.78125 6.484375 
Q 45.5625 -1.421875 35.59375 -1.421875 
Q 29.59375 -1.421875 25.265625 0.953125 
Q 20.953125 3.328125 18.109375 8.203125 
L 18.109375 0 
L 9.078125 0 
L 9.078125 75.984375 
L 18.109375 75.984375 
z
" id="DejaVuSans-98"/>
      <path d="M 32.171875 -5.078125 
Q 28.375 -14.84375 24.75 -17.8125 
Q 21.140625 -20.796875 15.09375 -20.796875 
L 7.90625 -20.796875 
L 7.90625 -13.28125 
L 13.1875 -13.28125 
Q 16.890625 -13.28125 18.9375 -11.515625 
Q 21 -9.765625 23.484375 -3.21875 
L 25.09375 0.875 
L 2.984375 54.6875 
L 12.5 54.6875 
L 29.59375 11.921875 
L 46.6875 54.6875 
L 56.203125 54.6875 
z
" id="DejaVuSans-121"/>
      <path d="M 37.109375 75.984375 
L 37.109375 68.5 
L 28.515625 68.5 
Q 23.6875 68.5 21.796875 66.546875 
Q 19.921875 64.59375 19.921875 59.515625 
L 19.921875 54.6875 
L 34.71875 54.6875 
L 34.71875 47.703125 
L 19.921875 47.703125 
L 19.921875 0 
L 10.890625 0 
L 10.890625 47.703125 
L 2.296875 47.703125 
L 2.296875 54.6875 
L 10.890625 54.6875 
L 10.890625 58.5 
Q 10.890625 67.625 15.140625 71.796875 
Q 19.390625 75.984375 28.609375 75.984375 
z
" id="DejaVuSans-102"/>
     </defs>
     <g transform="translate(12.292187 241.551094)rotate(-90)scale(0.1 -0.1)">
      <use xlink:href="#DejaVuSans-112"/>
      <use x="63.476562" xlink:href="#DejaVuSans-114"/>
      <use x="104.558594" xlink:href="#DejaVuSans-111"/>
      <use x="165.740234" xlink:href="#DejaVuSans-98"/>
      <use x="229.216797" xlink:href="#DejaVuSans-97"/>
      <use x="290.496094" xlink:href="#DejaVuSans-98"/>
      <use x="353.972656" xlink:href="#DejaVuSans-105"/>
      <use x="381.755859" xlink:href="#DejaVuSans-108"/>
      <use x="409.539062" xlink:href="#DejaVuSans-105"/>
      <use x="437.322266" xlink:href="#DejaVuSans-116"/>
      <use x="476.53125" xlink:href="#DejaVuSans-121"/>
      <use x="535.710938" xlink:href="#DejaVuSans-32"/>
      <use x="567.498047" xlink:href="#DejaVuSans-111"/>
      <use x="628.679688" xlink:href="#DejaVuSans-102"/>
      <use x="663.884766" xlink:href="#DejaVuSans-32"/>
      <use x="695.671875" xlink:href="#DejaVuSans-99"/>
      <use x="750.652344" xlink:href="#DejaVuSans-111"/>
      <use x="811.833984" xlink:href="#DejaVuSans-117"/>
      <use x="875.212891" xlink:href="#DejaVuSans-110"/>
      <use x="938.591797" xlink:href="#DejaVuSans-116"/>
      <use x="977.800781" xlink:href="#DejaVuSans-114"/>
      <use x="1018.914062" xlink:href="#DejaVuSans-121"/>
      <use x="1078.09375" xlink:href="#DejaVuSans-32"/>
      <use x="1109.880859" xlink:href="#DejaVuSans-102"/>
      <use x="1145.085938" xlink:href="#DejaVuSans-111"/>
      <use x="1206.267578" xlink:href="#DejaVuSans-114"/>
      <use x="1247.380859" xlink:href="#DejaVuSans-32"/>
      <use x="1279.167969" xlink:href="#DejaVuSans-108"/>
      <use x="1306.951172" xlink:href="#DejaVuSans-111"/>
      <use x="1368.132812" xlink:href="#DejaVuSans-99"/>
      <use x="1423.113281" xlink:href="#DejaVuSans-97"/>
      <use x="1484.392578" xlink:href="#DejaVuSans-108"/>
      <use x="1512.175781" xlink:href="#DejaVuSans-32"/>
      <use x="1543.962891" xlink:href="#DejaVuSans-101"/>
      <use x="1605.470703" xlink:href="#DejaVuSans-120"/>
      <use x="1664.650391" xlink:href="#DejaVuSans-116"/>
      <use x="1703.859375" xlink:href="#DejaVuSans-114"/>
      <use x="1744.941406" xlink:href="#DejaVuSans-101"/>
      <use x="1806.464844" xlink:href="#DejaVuSans-109"/>
      <use x="1903.876953" xlink:href="#DejaVuSans-101"/>
     </g>
    </g>
   </g>
   <g id="line2d_13">
    <path clip-path="url(#p186ae059e8)" d="M 69.218182 217.19116 
L 71.146908 224.044132 
L 73.075633 229.703553 
L 75.004359 234.227109 
L 75.968722 236.080964 
L 76.933085 237.672484 
L 77.897448 239.008879 
L 78.861811 240.097361 
L 79.826173 240.94514 
L 80.790536 241.559426 
L 81.754899 241.947431 
L 82.719262 242.116364 
L 83.683625 242.073436 
L 84.647988 241.825858 
L 85.612351 241.38084 
L 86.576713 240.745593 
L 87.541076 239.927327 
L 88.505439 238.933253 
L 90.434165 236.446524 
L 92.362891 233.34309 
L 94.291616 229.680635 
L 96.220342 225.516843 
L 98.149068 220.9094 
L 101.042156 213.292572 
L 103.935245 205.002004 
L 107.792697 193.236363 
L 118.400688 160.257025 
L 121.293777 152.012398 
L 124.186865 144.456826 
L 126.115591 139.898728 
L 128.044317 135.791088 
L 129.973043 132.19159 
L 131.901768 129.157919 
L 133.830494 126.747343 
L 135.75922 124.978192 
L 136.723583 124.318434 
L 137.687945 123.798705 
L 138.652308 123.411619 
L 139.616671 123.149788 
L 141.545397 122.972347 
L 143.474123 123.207289 
L 145.402848 123.79552 
L 147.331574 124.677945 
L 149.2603 125.795471 
L 152.153388 127.783308 
L 160.832654 134.1285 
L 162.76138 135.237108 
L 164.690106 136.108066 
L 166.618832 136.686184 
L 168.547557 136.961631 
L 170.476283 136.953845 
L 172.405009 136.682751 
L 174.333734 136.168272 
L 176.26246 135.430334 
L 178.191186 134.488861 
L 180.119912 133.363778 
L 183.013 131.375469 
L 185.906089 129.086114 
L 189.76354 125.681571 
L 194.585355 121.084221 
L 203.264621 112.740837 
L 208.086435 108.413517 
L 211.943886 105.230356 
L 215.801338 102.371159 
L 218.694426 100.481695 
L 221.587515 98.843734 
L 224.480604 97.486961 
L 227.373692 96.441067 
L 229.302418 95.931174 
L 231.231144 95.578247 
L 234.124232 95.321009 
L 237.017321 95.348511 
L 239.910409 95.613674 
L 243.767861 96.255553 
L 248.589675 97.364362 
L 259.197667 99.979432 
L 263.055118 100.644584 
L 267.876933 101.18575 
L 275.591836 102.004819 
L 279.449287 102.691913 
L 282.342376 103.44415 
L 285.235464 104.46545 
L 288.128553 105.815204 
L 290.057279 106.926844 
L 291.986004 108.228457 
L 293.91473 109.737582 
L 295.843456 111.46199 
L 298.736544 114.423671 
L 301.629633 117.789593 
L 304.522722 121.508186 
L 308.380173 126.925776 
L 312.237625 132.756418 
L 318.023802 142.009453 
L 330.560519 162.336696 
L 334.417971 168.17017 
L 338.275422 173.591578 
L 341.168511 177.31368 
L 344.061599 180.683665 
L 346.954688 183.649962 
L 348.883414 185.377757 
L 350.812139 186.887936 
L 352.740865 188.165218 
L 354.669591 189.194324 
L 356.598317 189.959973 
L 357.562679 190.239227 
L 357.562679 190.239227 
" style="fill:none;stroke:#1f77b4;stroke-dasharray:5.55,2.4;stroke-dashoffset:0;stroke-width:1.5;"/>
   </g>
   <g id="line2d_14">
    <path clip-path="url(#p186ae059e8)" d="M 70.061294 183.050267 
L 73.106651 186.045265 
L 76.152007 188.589841 
L 79.197364 190.720997 
L 82.24272 192.475735 
L 85.288077 193.891059 
L 88.333433 195.00397 
L 91.378789 195.851472 
L 94.424146 196.470566 
L 97.469502 196.898255 
L 101.529977 197.234722 
L 106.605571 197.40292 
L 118.786997 197.640962 
L 122.847472 197.97533 
L 125.892829 198.40092 
L 128.938185 199.017465 
L 131.983542 199.861968 
L 135.028898 200.971431 
L 138.074255 202.382688 
L 141.119611 204.089156 
L 146.195205 207.290045 
L 151.270799 210.447794 
L 154.316156 212.086964 
L 156.346393 212.998047 
L 158.376631 213.721633 
L 160.406868 214.221605 
L 162.437106 214.461842 
L 164.467344 214.406227 
L 166.497581 214.01864 
L 168.527819 213.262964 
L 170.558056 212.103078 
L 172.588294 210.506008 
L 174.618532 208.475328 
L 176.648769 206.038191 
L 178.679007 203.222141 
L 180.709245 200.054725 
L 182.739482 196.563489 
L 185.784839 190.779729 
L 188.830195 184.422318 
L 191.875551 177.584223 
L 195.936027 167.879718 
L 201.011621 155.11551 
L 216.238403 116.320979 
L 221.313997 104.090331 
L 225.374472 94.797855 
L 229.434947 86.057164 
L 232.480304 79.927285 
L 235.52566 74.211746 
L 238.571017 68.9551 
L 241.616373 64.195614 
L 244.661729 59.94344 
L 247.707086 56.200878 
L 249.737324 53.99009 
L 251.767561 52.007499 
L 253.797799 50.253788 
L 255.828036 48.729636 
L 257.858274 47.435725 
L 259.888512 46.372737 
L 261.918749 45.541353 
L 263.948987 44.942254 
L 265.979224 44.576121 
L 268.009462 44.443636 
L 270.0397 44.54548 
L 272.069937 44.882335 
L 274.100175 45.454481 
L 276.130413 46.259546 
L 278.16065 47.294073 
L 280.190888 48.554602 
L 282.221125 50.037673 
L 284.251363 51.739826 
L 286.281601 53.657601 
L 289.326957 56.930986 
L 292.372313 60.670058 
L 295.41767 64.86314 
L 298.463026 69.498555 
L 301.508383 74.564626 
L 304.553739 80.049674 
L 307.599096 85.940327 
L 311.659571 94.321057 
L 317.750284 107.531267 
L 324.856115 122.93034 
L 328.916591 131.24871 
L 331.961947 137.071216 
L 335.007303 142.42264 
L 338.05266 147.200129 
L 340.082897 150.01548 
L 342.113135 152.499563 
L 344.143373 154.621904 
L 346.17361 156.352028 
L 348.203848 157.659462 
L 350.234086 158.513731 
L 351.249204 158.761405 
L 352.264323 158.88436 
L 353.279442 158.878787 
L 354.294561 158.740876 
L 355.30968 158.466818 
L 356.324798 158.052804 
L 357.339917 157.495024 
L 358.355036 156.789669 
L 359.370155 155.93293 
L 360.385274 154.920997 
L 362.415511 152.416314 
L 364.445749 149.245146 
L 366.475987 145.377017 
L 368.506224 140.781454 
L 370.536462 135.427983 
L 372.566699 129.286129 
L 373.581818 125.910035 
L 373.581818 125.910035 
" style="fill:none;stroke:#ff7f0e;stroke-linecap:square;stroke-width:1.5;"/>
   </g>
   <g id="patch_3">
    <path d="M 54 252 
L 54 34.56 
" style="fill:none;stroke:#000000;stroke-linecap:square;stroke-linejoin:miter;stroke-width:0.8;"/>
   </g>
   <g id="patch_4">
    <path d="M 388.8 252 
L 388.8 34.56 
" style="fill:none;stroke:#000000;stroke-linecap:square;stroke-linejoin:miter;stroke-width:0.8;"/>
   </g>
   <g id="patch_5">
    <path d="M 54 252 
L 388.8 252 
" style="fill:none;stroke:#000000;stroke-linecap:square;stroke-linejoin:miter;stroke-width:0.8;"/>
   </g>
   <g id="patch_6">
    <path d="M 54 34.56 
L 388.8 34.56 
" style="fill:none;stroke:#000000;stroke-linecap:square;stroke-linejoin:miter;stroke-width:0.8;"/>
   </g>
   <g id="text_15">
    <!-- difference of extremes probability of year 1980 vs. 2018 -->
    <defs>
     <path d="M 10.984375 1.515625 
L 10.984375 10.5 
Q 14.703125 8.734375 18.5 7.8125 
Q 22.3125 6.890625 25.984375 6.890625 
Q 35.75 6.890625 40.890625 13.453125 
Q 46.046875 20.015625 46.78125 33.40625 
Q 43.953125 29.203125 39.59375 26.953125 
Q 35.25 24.703125 29.984375 24.703125 
Q 19.046875 24.703125 12.671875 31.3125 
Q 6.296875 37.9375 6.296875 49.421875 
Q 6.296875 60.640625 12.9375 67.421875 
Q 19.578125 74.21875 30.609375 74.21875 
Q 43.265625 74.21875 49.921875 64.515625 
Q 56.59375 54.828125 56.59375 36.375 
Q 56.59375 19.140625 48.40625 8.859375 
Q 40.234375 -1.421875 26.421875 -1.421875 
Q 22.703125 -1.421875 18.890625 -0.6875 
Q 15.09375 0.046875 10.984375 1.515625 
z
M 30.609375 32.421875 
Q 37.25 32.421875 41.125 36.953125 
Q 45.015625 41.5 45.015625 49.421875 
Q 45.015625 57.28125 41.125 61.84375 
Q 37.25 66.40625 30.609375 66.40625 
Q 23.96875 66.40625 20.09375 61.84375 
Q 16.21875 57.28125 16.21875 49.421875 
Q 16.21875 41.5 20.09375 36.953125 
Q 23.96875 32.421875 30.609375 32.421875 
z
" id="DejaVuSans-57"/>
     <path d="M 2.984375 54.6875 
L 12.5 54.6875 
L 29.59375 8.796875 
L 46.6875 54.6875 
L 56.203125 54.6875 
L 35.6875 0 
L 23.484375 0 
z
" id="DejaVuSans-118"/>
    </defs>
    <g transform="translate(51.16875 14.788875)scale(0.12 -0.12)">
     <use xlink:href="#DejaVuSans-100"/>
     <use x="63.476562" xlink:href="#DejaVuSans-105"/>
     <use x="91.259766" xlink:href="#DejaVuSans-102"/>
     <use x="126.464844" xlink:href="#DejaVuSans-102"/>
     <use x="161.669922" xlink:href="#DejaVuSans-101"/>
     <use x="223.193359" xlink:href="#DejaVuSans-114"/>
     <use x="264.275391" xlink:href="#DejaVuSans-101"/>
     <use x="325.798828" xlink:href="#DejaVuSans-110"/>
     <use x="389.177734" xlink:href="#DejaVuSans-99"/>
     <use x="444.158203" xlink:href="#DejaVuSans-101"/>
     <use x="505.681641" xlink:href="#DejaVuSans-32"/>
     <use x="537.46875" xlink:href="#DejaVuSans-111"/>
     <use x="598.650391" xlink:href="#DejaVuSans-102"/>
     <use x="633.855469" xlink:href="#DejaVuSans-32"/>
     <use x="665.642578" xlink:href="#DejaVuSans-101"/>
     <use x="727.150391" xlink:href="#DejaVuSans-120"/>
     <use x="786.330078" xlink:href="#DejaVuSans-116"/>
     <use x="825.539062" xlink:href="#DejaVuSans-114"/>
     <use x="866.621094" xlink:href="#DejaVuSans-101"/>
     <use x="928.144531" xlink:href="#DejaVuSans-109"/>
     <use x="1025.556641" xlink:href="#DejaVuSans-101"/>
     <use x="1087.080078" xlink:href="#DejaVuSans-115"/>
     <use x="1139.179688" xlink:href="#DejaVuSans-32"/>
     <use x="1170.966797" xlink:href="#DejaVuSans-112"/>
     <use x="1234.443359" xlink:href="#DejaVuSans-114"/>
     <use x="1275.525391" xlink:href="#DejaVuSans-111"/>
     <use x="1336.707031" xlink:href="#DejaVuSans-98"/>
     <use x="1400.183594" xlink:href="#DejaVuSans-97"/>
     <use x="1461.462891" xlink:href="#DejaVuSans-98"/>
     <use x="1524.939453" xlink:href="#DejaVuSans-105"/>
     <use x="1552.722656" xlink:href="#DejaVuSans-108"/>
     <use x="1580.505859" xlink:href="#DejaVuSans-105"/>
     <use x="1608.289062" xlink:href="#DejaVuSans-116"/>
     <use x="1647.498047" xlink:href="#DejaVuSans-121"/>
     <use x="1706.677734" xlink:href="#DejaVuSans-32"/>
     <use x="1738.464844" xlink:href="#DejaVuSans-111"/>
     <use x="1799.646484" xlink:href="#DejaVuSans-102"/>
     <use x="1834.851562" xlink:href="#DejaVuSans-32"/>
     <use x="1866.638672" xlink:href="#DejaVuSans-121"/>
     <use x="1925.818359" xlink:href="#DejaVuSans-101"/>
     <use x="1987.341797" xlink:href="#DejaVuSans-97"/>
     <use x="2048.621094" xlink:href="#DejaVuSans-114"/>
     <use x="2089.734375" xlink:href="#DejaVuSans-32"/>
     <use x="2121.521484" xlink:href="#DejaVuSans-49"/>
     <use x="2185.144531" xlink:href="#DejaVuSans-57"/>
     <use x="2248.767578" xlink:href="#DejaVuSans-56"/>
     <use x="2312.390625" xlink:href="#DejaVuSans-48"/>
     <use x="2376.013672" xlink:href="#DejaVuSans-32"/>
     <use x="2407.800781" xlink:href="#DejaVuSans-118"/>
     <use x="2466.980469" xlink:href="#DejaVuSans-115"/>
     <use x="2519.080078" xlink:href="#DejaVuSans-46"/>
     <use x="2550.867188" xlink:href="#DejaVuSans-32"/>
     <use x="2582.654297" xlink:href="#DejaVuSans-50"/>
     <use x="2646.277344" xlink:href="#DejaVuSans-48"/>
     <use x="2709.900391" xlink:href="#DejaVuSans-49"/>
     <use x="2773.523438" xlink:href="#DejaVuSans-56"/>
    </g>
    <!-- for mn2t-minmax-3h-min()_bin -->
    <defs>
     <path d="M 4.890625 31.390625 
L 31.203125 31.390625 
L 31.203125 23.390625 
L 4.890625 23.390625 
z
" id="DejaVuSans-45"/>
     <path d="M 54.890625 33.015625 
L 54.890625 0 
L 45.90625 0 
L 45.90625 32.71875 
Q 45.90625 40.484375 42.875 44.328125 
Q 39.84375 48.1875 33.796875 48.1875 
Q 26.515625 48.1875 22.3125 43.546875 
Q 18.109375 38.921875 18.109375 30.90625 
L 18.109375 0 
L 9.078125 0 
L 9.078125 75.984375 
L 18.109375 75.984375 
L 18.109375 46.1875 
Q 21.34375 51.125 25.703125 53.5625 
Q 30.078125 56 35.796875 56 
Q 45.21875 56 50.046875 50.171875 
Q 54.890625 44.34375 54.890625 33.015625 
z
" id="DejaVuSans-104"/>
     <path d="M 31 75.875 
Q 24.46875 64.65625 21.28125 53.65625 
Q 18.109375 42.671875 18.109375 31.390625 
Q 18.109375 20.125 21.3125 9.0625 
Q 24.515625 -2 31 -13.1875 
L 23.1875 -13.1875 
Q 15.875 -1.703125 12.234375 9.375 
Q 8.59375 20.453125 8.59375 31.390625 
Q 8.59375 42.28125 12.203125 53.3125 
Q 15.828125 64.359375 23.1875 75.875 
z
" id="DejaVuSans-40"/>
     <path d="M 8.015625 75.875 
L 15.828125 75.875 
Q 23.140625 64.359375 26.78125 53.3125 
Q 30.421875 42.28125 30.421875 31.390625 
Q 30.421875 20.453125 26.78125 9.375 
Q 23.140625 -1.703125 15.828125 -13.1875 
L 8.015625 -13.1875 
Q 14.5 -2 17.703125 9.0625 
Q 20.90625 20.125 20.90625 31.390625 
Q 20.90625 42.671875 17.703125 53.65625 
Q 14.5 64.65625 8.015625 75.875 
z
" id="DejaVuSans-41"/>
     <path d="M 50.984375 -16.609375 
L 50.984375 -23.578125 
L -0.984375 -23.578125 
L -0.984375 -16.609375 
z
" id="DejaVuSans-95"/>
    </defs>
    <g transform="translate(128.652188 28.22625)scale(0.12 -0.12)">
     <use xlink:href="#DejaVuSans-102"/>
     <use x="35.205078" xlink:href="#DejaVuSans-111"/>
     <use x="96.386719" xlink:href="#DejaVuSans-114"/>
     <use x="137.5" xlink:href="#DejaVuSans-32"/>
     <use x="169.287109" xlink:href="#DejaVuSans-109"/>
     <use x="266.699219" xlink:href="#DejaVuSans-110"/>
     <use x="330.078125" xlink:href="#DejaVuSans-50"/>
     <use x="393.701172" xlink:href="#DejaVuSans-116"/>
     <use x="432.910156" xlink:href="#DejaVuSans-45"/>
     <use x="468.994141" xlink:href="#DejaVuSans-109"/>
     <use x="566.40625" xlink:href="#DejaVuSans-105"/>
     <use x="594.189453" xlink:href="#DejaVuSans-110"/>
     <use x="657.568359" xlink:href="#DejaVuSans-109"/>
     <use x="754.980469" xlink:href="#DejaVuSans-97"/>
     <use x="816.259766" xlink:href="#DejaVuSans-120"/>
     <use x="875.439453" xlink:href="#DejaVuSans-45"/>
     <use x="911.523438" xlink:href="#DejaVuSans-51"/>
     <use x="975.146484" xlink:href="#DejaVuSans-104"/>
     <use x="1038.525391" xlink:href="#DejaVuSans-45"/>
     <use x="1074.609375" xlink:href="#DejaVuSans-109"/>
     <use x="1172.021484" xlink:href="#DejaVuSans-105"/>
     <use x="1199.804688" xlink:href="#DejaVuSans-110"/>
     <use x="1263.183594" xlink:href="#DejaVuSans-40"/>
     <use x="1302.197266" xlink:href="#DejaVuSans-41"/>
     <use x="1341.210938" xlink:href="#DejaVuSans-95"/>
     <use x="1391.210938" xlink:href="#DejaVuSans-98"/>
     <use x="1454.6875" xlink:href="#DejaVuSans-105"/>
     <use x="1482.470703" xlink:href="#DejaVuSans-110"/>
    </g>
   </g>
   <g id="legend_1">
    <g id="patch_7">
     <path d="M 395.8 159.458125 
L 453.25 159.458125 
Q 455.25 159.458125 455.25 157.458125 
L 455.25 129.101875 
Q 455.25 127.101875 453.25 127.101875 
L 395.8 127.101875 
Q 393.8 127.101875 393.8 129.101875 
L 393.8 157.458125 
Q 393.8 159.458125 395.8 159.458125 
z
" style="fill:#ffffff;opacity:0.8;stroke:#cccccc;stroke-linejoin:miter;"/>
    </g>
    <g id="line2d_15">
     <path d="M 397.8 135.200312 
L 417.8 135.200312 
" style="fill:none;stroke:#1f77b4;stroke-dasharray:5.55,2.4;stroke-dashoffset:0;stroke-width:1.5;"/>
    </g>
    <g id="line2d_16"/>
    <g id="text_16">
     <!-- 1980 -->
     <g transform="translate(425.8 138.700312)scale(0.1 -0.1)">
      <use xlink:href="#DejaVuSans-49"/>
      <use x="63.623047" xlink:href="#DejaVuSans-57"/>
      <use x="127.246094" xlink:href="#DejaVuSans-56"/>
      <use x="190.869141" xlink:href="#DejaVuSans-48"/>
     </g>
    </g>
    <g id="line2d_17">
     <path d="M 397.8 149.878437 
L 417.8 149.878437 
" style="fill:none;stroke:#ff7f0e;stroke-linecap:square;stroke-width:1.5;"/>
    </g>
    <g id="line2d_18"/>
    <g id="text_17">
     <!-- 2018 -->
     <g transform="translate(425.8 153.378437)scale(0.1 -0.1)">
      <use xlink:href="#DejaVuSans-50"/>
      <use x="63.623047" xlink:href="#DejaVuSans-48"/>
      <use x="127.246094" xlink:href="#DejaVuSans-49"/>
      <use x="190.869141" xlink:href="#DejaVuSans-56"/>
     </g>
    </g>
   </g>
  </g>
 </g>
 <defs>
  <clipPath id="p186ae059e8">
   <rect height="217.44" width="334.8" x="54" y="34.56"/>
  </clipPath>
 </defs>
</svg>
